<svg width="96" height="24" fill="none" xmlns="http://www.w3.org/2000/svg"><path d="M93.03 3.172v5.41h1.893v2.616H93.03v4.875c0 .476.118.832.355 1.07.236.238.591.357 1.065.357h1.36v3.091h-2.366c-.947 0-2.13-.178-2.959-.951-.828-.773-1.183-1.784-1.183-3.21v-5.291h-1.716V8.523h1.716v-5.35h3.728zM81.965 20.83c-1.716 0-3.196-.595-4.202-1.665-1.065-1.07-1.538-2.497-1.538-4.161v-.416c0-1.843.473-3.33 1.42-4.518.947-1.13 2.308-1.725 4.083-1.725 1.598 0 2.9.476 3.787 1.427.947 1.01 1.36 2.319 1.36 3.983v1.962h-6.804v.06c.06.654.355 1.07.77 1.486.413.416 1.005.595 1.656.595.71 0 1.243-.06 1.657-.179.414-.119 1.006-.297 1.597-.594l.888 2.318c-.533.416-1.183.714-2.012 1.01-.828.298-1.775.417-2.662.417zm-.296-9.63c-.533 0-.947.177-1.184.594a3.961 3.961 0 00-.473 1.545l.06.06h3.194V13.1c0-.655-.118-1.07-.355-1.368-.355-.416-.71-.535-1.242-.535zm-12.19 9.63c-1.716 0-3.195-.595-4.2-1.665-1.007-1.07-1.54-2.497-1.54-4.161v-.416c0-1.843.474-3.33 1.42-4.518.947-1.13 2.308-1.725 4.084-1.725 1.597 0 2.899.476 3.787 1.427.887.951 1.36 2.319 1.36 3.983v1.962h-6.804v.06c.059.654.355 1.07.77 1.486.413.416 1.005.595 1.656.595.71 0 1.242-.06 1.657-.179.414-.119 1.005-.297 1.597-.594l.888 2.318c-.533.416-1.184.714-2.012 1.01-.77.298-1.716.417-2.663.417zm-.236-9.63c-.533 0-.947.177-1.184.594a3.948 3.948 0 00-.473 1.545l.059.06h3.195V13.1c0-.655-.118-1.07-.355-1.368-.355-.416-.71-.535-1.242-.535zm-11.065 4.28l1.301-7.016h3.373L60.13 20.532h-3.136l-1.952-6.42h-.06l-1.952 6.42h-3.136l-2.782-12.01h3.432l1.302 7.075h.06l1.893-7.074h2.367l2.012 6.956zm-15.681 1.664c0-.297-.178-.594-.532-.832-.355-.238-.947-.476-1.835-.654-1.36-.297-2.426-.713-3.136-1.249-.71-.594-1.065-1.367-1.065-2.378 0-1.07.473-1.961 1.302-2.734.887-.773 2.07-1.07 3.55-1.07 1.538 0 2.84.356 3.728 1.07.947.713 1.36 1.605 1.301 2.794v.06h-3.55c0-.476-.118-.833-.355-1.07-.236-.239-.65-.357-1.124-.357-.414 0-.71.118-1.006.356-.296.238-.414.476-.414.832 0 .357.177.595.473.833s.947.416 1.835.594c1.42.298 2.544.714 3.195 1.249.71.594 1.065 1.367 1.065 2.437 0 1.07-.473 1.962-1.42 2.675-.947.714-2.19 1.07-3.728 1.07-1.598 0-2.9-.416-3.846-1.248-.947-.832-1.361-1.724-1.302-2.794v-.06h3.373c0 .595.177 1.011.532 1.19.356.178.829.416 1.361.416.533 0 .888-.12 1.125-.298.355-.178.473-.475.473-.832zm-16.095-8.68l.119 1.665c.414-.595.887-1.07 1.42-1.367a3.507 3.507 0 011.893-.535c1.125 0 2.071.416 2.722 1.13.651.713 1.006 1.961 1.006 3.626v7.55h-3.61V13.04c0-.713-.118-1.13-.414-1.427-.295-.297-.71-.416-1.242-.416-.355 0-.651.06-.947.178a1.617 1.617 0 00-.71.536v8.68H22.97V8.521h3.432v-.059zm-5.68-2.259h-3.728V3.172h3.728v3.032zm0 14.387h-3.728V8.523h3.728V20.59zm-11.894 0V11.08H7.112V8.463h1.716V7.215c0-1.367.415-2.438 1.184-3.21.828-.773 2.07-.952 2.958-.952h2.367v3.032h-1.36c-.474 0-.83.12-1.066.357-.236.238-.355.595-.355 1.07v.892h2.308v2.616h-2.308v9.452H8.828v.12zm-7.1-16.408C1.728.557 3.62.259 6.817.259v2.854c-1.48 0-2.071.238-2.071 1.13v4.696c0 1.07.059 2.2-.829 2.913.888.713.829 1.784.829 2.913v4.697c0 .95.591 1.13 2.07 1.13v2.853c-3.195 0-5.088-.297-5.088-3.924v-4.756c0-.773 0-1.605-1.48-1.605v-2.497c1.48 0 1.48-.892 1.48-1.605V4.183z" fill="#FFB577"/></svg>