<svg width="48" height="48" fill="none" xmlns="http://www.w3.org/2000/svg"><circle cx="24" cy="24" r="24" fill="#FFB577" fill-opacity=".07"/><path fill-rule="evenodd" clip-rule="evenodd" d="M33.2 22.667h-2.4v-6.8a.862.862 0 00-.233-.59.795.795 0 00-.567-.244h-.4v-3.2a.851.851 0 00-.234-.589A.784.784 0 0028.8 11a.784.784 0 00-.566.244.851.851 0 00-.234.59v3.2h-1.6v-3.2a.851.851 0 00-.234-.59A.784.784 0 0025.6 11a.784.784 0 00-.566.244.851.851 0 00-.234.59v3.2h-1.6v-3.2a.851.851 0 00-.234-.59A.784.784 0 0022.4 11a.784.784 0 00-.566.244.851.851 0 00-.234.59v3.2H20v-3.2a.851.851 0 00-.234-.59A.784.784 0 0019.2 11a.784.784 0 00-.566.244.851.851 0 00-.234.59v3.2H18a.768.768 0 00-.567.243.832.832 0 00-.233.59v6.8h-2.4a.786.786 0 00-.565.244.853.853 0 00-.235.589v11.667a.861.861 0 00.233.59.796.796 0 00.567.243h18.4a.768.768 0 00.566-.243.834.834 0 00.234-.59V23.5a.853.853 0 00-.235-.588.786.786 0 00-.565-.245zM18.8 16.7h10.4v5.967H18.8V16.7zm-3.2 7.633h16.8v1.8a3.1 3.1 0 00-1.312.959c-.368.4-.552.575-.96.575-.408 0-.584-.175-.96-.575a2.67 2.67 0 00-.93-.804 2.558 2.558 0 00-2.355 0 2.67 2.67 0 00-.931.804c-.368.4-.552.575-.96.575-.408 0-.584-.175-.952-.575a2.68 2.68 0 00-.933-.804 2.566 2.566 0 00-2.358 0 2.68 2.68 0 00-.933.804c-.368.4-.544.575-.952.575-.408 0-.584-.175-.952-.575a3.05 3.05 0 00-1.312-.959v-1.8zm16.8 10H15.6v-6.25c.048.042.096.1.152.159.247.339.567.614.933.803a2.565 2.565 0 002.358 0 2.68 2.68 0 00.933-.803c.368-.392.544-.575.952-.575.408 0 .592.183.952.583.249.337.569.61.935.798a2.578 2.578 0 002.354 0c.366-.188.686-.461.935-.798.368-.4.544-.583.952-.583.416 0 .592.183.96.583.249.337.569.61.935.798a2.578 2.578 0 002.354 0c.366-.188.686-.461.935-.798.056-.067.112-.125.16-.175v6.258z" fill="#FFB577"/></svg>