<svg width="48" height="48" fill="none" xmlns="http://www.w3.org/2000/svg"><circle cx="24" cy="24" r="24" fill="#FFB577" fill-opacity=".07"/><path d="M27.613 20.622h0l-.001-.008c-.33-2.195-.715-4.764-3.547-7-1.555-1.227-3.172-1.864-4.804-1.864-2.97 0-4.84 2.097-4.94 2.21a11.27 11.27 0 00-1.498 2.248c-.675 1.32-1.277 3.13-1.007 5.113.331 2.425 1.882 4.501 4.545 6.182h0l.01.006.051.029h0l.012.006c.106.053 1.407.698 2.868 1.388 1.453.685 3.09 1.428 3.855 1.666h0c.686.213 1.264.316 1.81.316.43 0 .834-.07 1.213-.205l2.512 1.587c-.045.432-.06 1.05.1 1.675.18.714.588 1.448 1.434 1.914.435.24.922.365 1.417.365h0a2.91 2.91 0 001.96-.755 2.65 2.65 0 00.89-2.108c.478-.148 1.051-.432 1.418-.98v-.001c.286-.43.518-1.148.146-2.173-.385-1.066-1.173-1.59-2.02-1.795-.786-.189-1.624-.106-2.27.054l-2.223-1.751c.124-.745-.066-1.465-.566-2.082-.927-1.149-1.137-2.511-1.365-4.037zm-.705 7.302l-.035.027-.023.038-.054.088v.001c-.331.548-.674.836-.98.99-.308.155-.6.186-.848.186-.361 0-.778-.074-1.322-.242-.655-.203-2.159-.884-3.569-1.55a191.087 191.087 0 01-2.872-1.387c-2.255-1.433-3.493-3.11-3.75-4.973h0c-.216-1.57.292-3.066.874-4.188a10.634 10.634 0 011.114-1.715c.07-.087.112-.133.112-.133h0l.002-.002h0a5.276 5.276 0 011.022-.83c.653-.416 1.576-.823 2.682-.823 1.23 0 2.5.497 3.783 1.509 2.312 1.825 2.609 3.786 2.934 5.95 0 0 0 0 0 0l.003.022c.239 1.59.496 3.305 1.713 4.813h0a.983.983 0 01.227.466c.03.186.005.441-.186.79h0a3.48 3.48 0 01-.736.89 1.826 1.826 0 01-.011.01h0l-.08.063zm.981-2.376c.232.286.49.757.065 1.533l-.065-1.533zm4.794 7.111l.25.021-3.032-1.286.134-.212h0s0 0 0 0l-2.374-1.499c.176-.195.335-.405.476-.628.257-.231.49-.487.697-.763l2.248 1.77h.001a.832.832 0 00.779.132h0l.004-.002a4.177 4.177 0 011.218-.207c.618-.002 1.19.181 1.42.815h0c.134.367.106.573.035.68-.083.125-.269.233-.508.31-.23.075-.456.105-.558.11a.825.825 0 00-.79.759z" fill="#FFB577" stroke="#FFB577" stroke-width=".5"/></svg>