<svg width="48" height="48" fill="none" xmlns="http://www.w3.org/2000/svg"><circle cx="24" cy="24" r="24" fill="#FFB577" fill-opacity=".07"/><path d="M31.001 18.144a1 1 0 00-.23-.8 1.001 1.001 0 00-.77-.34v-2a1 1 0 00-1-1h-2v-.59l.71-.7a1.004 1.004 0 10-1.42-1.42l-1 1a.997.997 0 00-.29.71v1h-7a1 1 0 00-1 1v2a1 1 0 00-.76.34 1.001 1.001 0 00-.23.8l2 13.93v2.93a1 1 0 001 1h9a1 1 0 001-1v-2.93l1.99-13.93zm-12.85.86h10.7l-1.72 12h-7.26l-1.72-12zm.85-3h9v1h-9v-1zm8 18h-7v-1h7v1z" fill="#FFB577"/></svg>