<svg width="48" height="48" fill="none" xmlns="http://www.w3.org/2000/svg"><circle cx="24" cy="24" r="24" fill="#FFB577" fill-opacity=".07"/><path d="M28.406 31.154v-3.382a.882.882 0 00-.229-.598.752.752 0 00-.552-.247H12.781a.752.752 0 00-.552.247.882.882 0 00-.229.598v3.382c0 .225.082.44.229.598a.752.752 0 00.552.248h14.844c.207 0 .406-.09.552-.248a.882.882 0 00.23-.598zm-1.562-.845H13.562v-1.691h13.282v1.69zm-12.5-5.919a.752.752 0 00-.553.248.882.882 0 00-.229.597c0 .225.083.44.23.598a.752.752 0 00.552.248h11.719a.751.751 0 00.552-.248.882.882 0 00.229-.598.882.882 0 00-.23-.597.752.752 0 00-.552-.248H14.345zm-1.563-.846h14.844a.752.752 0 00.552-.247.882.882 0 00.23-.598c0-.06-.095-5.92-8.204-5.92-8.11 0-8.203 5.86-8.203 5.92 0 .224.082.44.229.598a.752.752 0 00.552.247zm7.422-5.073c4.714 0 6.082 2.143 6.479 3.382H13.725c.396-1.24 1.764-3.382 6.478-3.382zm16.016-3.382h-4.026l-.672-4.367a.89.89 0 00-.105-.314.824.824 0 00-.208-.246.723.723 0 00-.876-.032.813.813 0 00-.224.23.915.915 0 00-.128.64l.629 4.089h-.64a.73.73 0 00-.31.069.782.782 0 00-.258.195.856.856 0 00-.166.29.91.91 0 00-.046.338l.78 15.22a.885.885 0 00.244.568.75.75 0 00.537.231h4.688a.75.75 0 00.536-.231.876.876 0 00.244-.568l.78-15.22a.911.911 0 00-.046-.337.862.862 0 00-.166-.29.784.784 0 00-.258-.196.73.73 0 00-.31-.07zm-1.52 15.22h-3.21l-.694-13.53h4.598l-.694 13.53z" fill="#FFB577"/></svg>