<svg width="48" height="48" fill="none" xmlns="http://www.w3.org/2000/svg"><circle cx="24" cy="24" r="24" fill="#FFB577" fill-opacity=".07"/><path d="M34.09 14.282V10.7a.93.93 0 00-1.388-.788l-1.058.636-1.058-.636a.916.916 0 00-.944.004l-1.054.633-1.058-.633a.908.908 0 00-.943 0l-1.054.633-1.053-.633a.907.907 0 00-.944 0l-1.053.633-1.059-.633a.916.916 0 00-.943 0l-1.054.633-1.053-.633a.907.907 0 00-.944 0l-1.053.633-1.054-.633a.925.925 0 00-1.388.784v3.582a47.38 47.38 0 000 18.487v3.581a.93.93 0 001.388.788l1.058-.636 1.058.636a.916.916 0 00.944-.004l1.053-.632 1.059.632a.908.908 0 00.943 0l1.054-.632 1.053.632a.908.908 0 00.944 0l1.053-.632 1.058.632a.916.916 0 00.944 0l1.053-.632 1.054.632a.908.908 0 00.944 0l1.053-.632 1.054.632a.926.926 0 001.388-.784v-3.58a47.383 47.383 0 000-18.487zm-18.323-1.965l.138.082a.907.907 0 00.944 0l1.053-.632 1.053.632a.907.907 0 00.944 0l1.054-.632 1.058.632a.916.916 0 00.943 0l1.054-.632 1.053.632a.906.906 0 00.944 0l1.053-.632 1.059.632a.907.907 0 00.943 0l1.054-.632 1.058.637a.939.939 0 00.943 0l.142-.087v1.131h-16.49v-1.131zm16.49 22.417l-.137-.083a.907.907 0 00-.944 0l-1.053.632-1.054-.632a.908.908 0 00-.943 0l-1.054.632-1.058-.632a.916.916 0 00-.944 0l-1.053.632-1.053-.632a.908.908 0 00-.944 0l-1.054.632-1.058-.632a.916.916 0 00-.943 0l-1.054.632-1.058-.636a.939.939 0 00-.944 0l-.142.087v-1.132h16.49v1.132zm.16-2.964h-16.81a45.55 45.55 0 010-16.49h16.81a45.555 45.555 0 010 16.49z" fill="#FFB577"/><path d="M28.075 20.827a2.86 2.86 0 00-2.143-.966h-.43a2.955 2.955 0 00-.573.064v-1.438a.916.916 0 10-1.833 0v1.438a2.955 2.955 0 00-.572-.064h-.43a2.863 2.863 0 00-2.84 3.215l.43 3.44a2.867 2.867 0 002.84 2.506c.526 0 1.041-.148 1.488-.426a2.84 2.84 0 001.49.426 2.867 2.867 0 002.839-2.506l.43-3.44a2.868 2.868 0 00-.696-2.249zm-1.122 2.025l-.43 3.435a1.033 1.033 0 01-1.022.903 1.02 1.02 0 01-.783-.376.92.92 0 00-1.411 0 1.02 1.02 0 01-.783.376 1.033 1.033 0 01-1.022-.903l-.43-3.435a1.032 1.032 0 011.021-1.159h.43a1.022 1.022 0 01.784.376.955.955 0 001.41 0 1.023 1.023 0 01.784-.376h.43a1.031 1.031 0 011.022 1.159z" fill="#FFB577"/></svg>