<svg width="15" height="15" fill="none" xmlns="http://www.w3.org/2000/svg"><g clip-path="url(#clip0)" fill="#fff"><path d="M7.26 1.8c1.929 0 2.158.008 2.916.041.706.031 1.087.15 1.34.249.336.13.579.287.83.539.254.253.409.493.539.829.098.254.217.638.248 1.34.034.762.042.99.042 2.917 0 1.93-.008 2.158-.042 2.917-.031.706-.15 1.086-.248 1.34-.13.336-.288.579-.54.83a2.212 2.212 0 01-.829.539c-.253.098-.637.217-1.34.248-.761.034-.99.042-2.917.042-1.93 0-2.158-.008-2.917-.042-.705-.031-1.086-.15-1.34-.248a2.234 2.234 0 01-.83-.54 2.221 2.221 0 01-.538-.829c-.099-.254-.217-.637-.248-1.34-.034-.761-.043-.99-.043-2.917 0-1.93.009-2.158.043-2.917.03-.705.15-1.086.248-1.34.13-.336.288-.578.539-.83.254-.253.493-.409.83-.538.253-.1.637-.218 1.34-.249.758-.033.987-.042 2.916-.042zm0-1.301c-1.961 0-2.207.008-2.977.042-.767.034-1.295.158-1.752.336-.477.186-.88.431-1.28.835-.404.4-.65.804-.836 1.278-.178.46-.302.984-.336 1.752C.046 5.515.037 5.76.037 7.72c0 1.96.009 2.206.042 2.976.034.768.158 1.295.336 1.752.186.477.432.88.835 1.28.4.402.804.65 1.278.833.46.178.985.302 1.752.336.77.034 1.016.042 2.977.042 1.96 0 2.206-.008 2.976-.042.767-.034 1.295-.158 1.752-.336a3.53 3.53 0 001.278-.832c.4-.4.649-.804.832-1.278.178-.46.302-.985.336-1.752.034-.77.042-1.016.042-2.976 0-1.961-.008-2.207-.042-2.977-.034-.767-.158-1.295-.336-1.752a3.383 3.383 0 00-.827-1.283 3.53 3.53 0 00-1.277-.833c-.46-.177-.985-.301-1.752-.335C9.465.507 9.22.499 7.258.499z"/><path d="M7.26 4.011a3.71 3.71 0 000 7.42 3.71 3.71 0 000-7.42zm0 6.116a2.407 2.407 0 110-4.813 2.407 2.407 0 010 4.813zm4.722-6.263a.866.866 0 11-1.732 0 .866.866 0 011.732 0z"/></g><defs><clipPath id="clip0"><path fill="#fff" transform="translate(.037 .499)" d="M0 0h14.444v14.444H0z"/></clipPath></defs></svg>