<svg width="15" height="15" fill="none" xmlns="http://www.w3.org/2000/svg"><g clip-path="url(#clip0)"><path d="M5.063 13.589c5.449 0 8.43-4.516 8.43-8.431a8.77 8.77 0 00-.008-.384c.58-.42 1.08-.939 1.478-1.534-.54.24-1.114.397-1.7.466a2.98 2.98 0 001.302-1.64 5.957 5.957 0 01-1.88.72 2.968 2.968 0 00-5.053 2.702 8.417 8.417 0 01-6.107-3.094 2.967 2.967 0 00.917 3.955 2.967 2.967 0 01-1.342-.37v.037A2.962 2.962 0 003.477 8.92c-.435.12-.893.137-1.337.051a2.97 2.97 0 002.767 2.06A5.943 5.943 0 01.52 12.258a8.406 8.406 0 004.544 1.33z" fill="#fff"/></g><defs><clipPath id="clip0"><path fill="#fff" transform="translate(.519 .499)" d="M0 0h14.444v14.444H0z"/></clipPath></defs></svg>