<svg width="15" height="15" fill="none" xmlns="http://www.w3.org/2000/svg"><g clip-path="url(#clip0)"><path d="M13.93.499H1.623c-.59 0-1.066.465-1.066 1.04V13.9c0 .576.476 1.044 1.066 1.044h12.309c.59 0 1.07-.468 1.07-1.041V1.54c0-.576-.48-1.041-1.07-1.041zM4.842 12.807H2.697V5.912H4.84v6.895zM3.769 4.973a1.242 1.242 0 11-.004-2.484 1.242 1.242 0 01.004 2.484zm9.095 7.834h-2.14V9.456c0-.799-.015-1.828-1.115-1.828-1.115 0-1.284.871-1.284 1.771v3.408H6.187V5.912H8.24v.943h.028c.285-.542.984-1.115 2.025-1.115 2.17 0 2.57 1.428 2.57 3.284v3.783z" fill="#fff"/></g><defs><clipPath id="clip0"><path fill="#fff" transform="translate(.556 .499)" d="M0 0h14.444v14.444H0z"/></clipPath></defs></svg>